<?xml version="1.0" encoding="UTF-8"?>
<svg enable-background="new 0 0 300 300" version="1.1" viewBox="0 0 300 300" xml:space="preserve" xmlns="http://www.w3.org/2000/svg">
<path d="M206.4,200H21.7C11.6,200,2,190.7,2,180.9V75.3c0-9.5,8.5-17.5,18.5-17.6l240.4-12.3L206.4,200z M21.8,182h171.8L235,64.9  L21,76h-0.2c-0.3,0-0.6-0.2-0.8-0.1v104.5C20.3,181.1,21.3,181.8,21.8,182z"/>
<rect x="48.5" y="211" width="113.5" height="18"/>
<path d="m49.2 294c-22.9 0-41.6-18.6-41.6-41.6 0-22.9 18.6-41.6 41.6-41.6s41.6 18.6 41.6 41.6-18.7 41.6-41.6 41.6zm0-65.1c-13 0-23.6 10.6-23.6 23.6s10.6 23.5 23.6 23.5 23.6-10.6 23.6-23.6-10.6-23.5-23.6-23.5z"/>
<path d="m163.3 294c-22.9 0-41.6-18.6-41.6-41.6 0-22.9 18.6-41.6 41.6-41.6 22.9 0 41.6 18.6 41.6 41.6s-18.7 41.6-41.6 41.6zm0-65.1c-13 0-23.6 10.6-23.6 23.6s10.6 23.6 23.6 23.6 23.6-10.6 23.6-23.6-10.6-23.6-23.6-23.6z"/>
<polygon points="254.7 61.4 238.1 54.5 258.2 6 300 6 300 24 270.2 24"/>
</svg>
